<mxfile host="app.diagrams.net" modified="2023-07-14T16:58:33.030Z" agent="Mozilla/5.0 (Windows NT 10.0; Win64; x64) AppleWebKit/537.36 (KHTML, like Gecko) Chrome/114.0.0.0 Safari/537.36" etag="Q973PXVtI9pv7yLrY9JU" version="21.6.2" type="device">
  <diagram id="C5RBs43oDa-KdzZeNtuy" name="Page-1">
    <mxGraphModel dx="2060" dy="750" grid="1" gridSize="10" guides="1" tooltips="1" connect="1" arrows="1" fold="1" page="1" pageScale="1" pageWidth="827" pageHeight="1169" math="0" shadow="0">
      <root>
        <mxCell id="WIyWlLk6GJQsqaUBKTNV-0" />
        <mxCell id="WIyWlLk6GJQsqaUBKTNV-1" parent="WIyWlLk6GJQsqaUBKTNV-0" />
        <mxCell id="I3R7oS-LW92CMUSNMcSe-0" style="edgeStyle=orthogonalEdgeStyle;rounded=0;orthogonalLoop=1;jettySize=auto;html=1;entryX=0.5;entryY=0;entryDx=0;entryDy=0;" edge="1" parent="WIyWlLk6GJQsqaUBKTNV-1" source="_7yS_HUw5QS6FRWzfjh0-3" target="_7yS_HUw5QS6FRWzfjh0-5">
          <mxGeometry relative="1" as="geometry" />
        </mxCell>
        <mxCell id="_7yS_HUw5QS6FRWzfjh0-3" value="Start" style="ellipse;whiteSpace=wrap;html=1;" parent="WIyWlLk6GJQsqaUBKTNV-1" vertex="1">
          <mxGeometry x="381" y="20" width="66" height="40" as="geometry" />
        </mxCell>
        <mxCell id="_7yS_HUw5QS6FRWzfjh0-4" value="Finish" style="ellipse;whiteSpace=wrap;html=1;" parent="WIyWlLk6GJQsqaUBKTNV-1" vertex="1">
          <mxGeometry x="381" y="1110" width="64" height="40" as="geometry" />
        </mxCell>
        <mxCell id="I3R7oS-LW92CMUSNMcSe-1" style="edgeStyle=orthogonalEdgeStyle;rounded=0;orthogonalLoop=1;jettySize=auto;html=1;entryX=0.5;entryY=0;entryDx=0;entryDy=0;" edge="1" parent="WIyWlLk6GJQsqaUBKTNV-1" source="_7yS_HUw5QS6FRWzfjh0-5" target="_7yS_HUw5QS6FRWzfjh0-7">
          <mxGeometry relative="1" as="geometry" />
        </mxCell>
        <mxCell id="_7yS_HUw5QS6FRWzfjh0-5" value="array = [&quot;Hello&quot;, &quot;ok&quot;, &quot;lipton&quot;, &quot;row&quot;, &quot;Kirill&quot;, &quot;coli&quot;, &quot;100&quot;, &quot;fillin&quot;, &quot;;&quot;]&lt;br&gt;index = 0&lt;br&gt;counter = 0&lt;br&gt;maxIndex = array.length -1" style="rounded=0;whiteSpace=wrap;html=1;" parent="WIyWlLk6GJQsqaUBKTNV-1" vertex="1">
          <mxGeometry x="220" y="90" width="388" height="60" as="geometry" />
        </mxCell>
        <mxCell id="I3R7oS-LW92CMUSNMcSe-16" style="edgeStyle=orthogonalEdgeStyle;rounded=0;orthogonalLoop=1;jettySize=auto;html=1;entryX=0.5;entryY=0;entryDx=0;entryDy=0;" edge="1" parent="WIyWlLk6GJQsqaUBKTNV-1" source="_7yS_HUw5QS6FRWzfjh0-6" target="_7yS_HUw5QS6FRWzfjh0-11">
          <mxGeometry relative="1" as="geometry" />
        </mxCell>
        <mxCell id="_7yS_HUw5QS6FRWzfjh0-6" value="string resArray = new string[counter]&lt;br&gt;index = 0&lt;br&gt;resArrayIndex = 0" style="rounded=0;whiteSpace=wrap;html=1;" parent="WIyWlLk6GJQsqaUBKTNV-1" vertex="1">
          <mxGeometry x="296" y="545" width="236" height="65" as="geometry" />
        </mxCell>
        <mxCell id="I3R7oS-LW92CMUSNMcSe-2" style="edgeStyle=orthogonalEdgeStyle;rounded=0;orthogonalLoop=1;jettySize=auto;html=1;" edge="1" parent="WIyWlLk6GJQsqaUBKTNV-1" source="_7yS_HUw5QS6FRWzfjh0-7" target="_7yS_HUw5QS6FRWzfjh0-8">
          <mxGeometry relative="1" as="geometry" />
        </mxCell>
        <mxCell id="I3R7oS-LW92CMUSNMcSe-19" style="edgeStyle=orthogonalEdgeStyle;rounded=0;orthogonalLoop=1;jettySize=auto;html=1;entryX=1;entryY=0.5;entryDx=0;entryDy=0;" edge="1" parent="WIyWlLk6GJQsqaUBKTNV-1" source="_7yS_HUw5QS6FRWzfjh0-7" target="_7yS_HUw5QS6FRWzfjh0-6">
          <mxGeometry relative="1" as="geometry">
            <Array as="points">
              <mxPoint x="640" y="220" />
              <mxPoint x="640" y="578" />
            </Array>
          </mxGeometry>
        </mxCell>
        <mxCell id="_7yS_HUw5QS6FRWzfjh0-7" value="index &amp;lt;= maxIndex" style="rhombus;whiteSpace=wrap;html=1;" parent="WIyWlLk6GJQsqaUBKTNV-1" vertex="1">
          <mxGeometry x="342" y="180" width="144" height="80" as="geometry" />
        </mxCell>
        <mxCell id="I3R7oS-LW92CMUSNMcSe-3" style="edgeStyle=orthogonalEdgeStyle;rounded=0;orthogonalLoop=1;jettySize=auto;html=1;entryX=0.5;entryY=0;entryDx=0;entryDy=0;" edge="1" parent="WIyWlLk6GJQsqaUBKTNV-1" source="_7yS_HUw5QS6FRWzfjh0-8" target="_7yS_HUw5QS6FRWzfjh0-9">
          <mxGeometry relative="1" as="geometry" />
        </mxCell>
        <mxCell id="I3R7oS-LW92CMUSNMcSe-6" style="edgeStyle=orthogonalEdgeStyle;rounded=0;orthogonalLoop=1;jettySize=auto;html=1;entryX=1;entryY=0.5;entryDx=0;entryDy=0;" edge="1" parent="WIyWlLk6GJQsqaUBKTNV-1" source="_7yS_HUw5QS6FRWzfjh0-8" target="_7yS_HUw5QS6FRWzfjh0-10">
          <mxGeometry relative="1" as="geometry" />
        </mxCell>
        <mxCell id="_7yS_HUw5QS6FRWzfjh0-8" value="array[index].length &amp;lt;= 3" style="rhombus;whiteSpace=wrap;html=1;" parent="WIyWlLk6GJQsqaUBKTNV-1" vertex="1">
          <mxGeometry x="336" y="312.5" width="156" height="95" as="geometry" />
        </mxCell>
        <mxCell id="I3R7oS-LW92CMUSNMcSe-5" style="edgeStyle=orthogonalEdgeStyle;rounded=0;orthogonalLoop=1;jettySize=auto;html=1;entryX=0.5;entryY=1;entryDx=0;entryDy=0;" edge="1" parent="WIyWlLk6GJQsqaUBKTNV-1" source="_7yS_HUw5QS6FRWzfjh0-9" target="_7yS_HUw5QS6FRWzfjh0-10">
          <mxGeometry relative="1" as="geometry" />
        </mxCell>
        <mxCell id="_7yS_HUw5QS6FRWzfjh0-9" value="counter = counter + 1" style="rounded=0;whiteSpace=wrap;html=1;" parent="WIyWlLk6GJQsqaUBKTNV-1" vertex="1">
          <mxGeometry x="354" y="480" width="120" height="30" as="geometry" />
        </mxCell>
        <mxCell id="I3R7oS-LW92CMUSNMcSe-7" style="edgeStyle=orthogonalEdgeStyle;rounded=0;orthogonalLoop=1;jettySize=auto;html=1;entryX=0;entryY=0.5;entryDx=0;entryDy=0;" edge="1" parent="WIyWlLk6GJQsqaUBKTNV-1" source="_7yS_HUw5QS6FRWzfjh0-10" target="_7yS_HUw5QS6FRWzfjh0-7">
          <mxGeometry relative="1" as="geometry">
            <Array as="points">
              <mxPoint x="240" y="220" />
            </Array>
          </mxGeometry>
        </mxCell>
        <mxCell id="_7yS_HUw5QS6FRWzfjh0-10" value="index = index + 1" style="rounded=0;whiteSpace=wrap;html=1;" parent="WIyWlLk6GJQsqaUBKTNV-1" vertex="1">
          <mxGeometry x="182" y="345" width="120" height="30" as="geometry" />
        </mxCell>
        <mxCell id="I3R7oS-LW92CMUSNMcSe-17" style="edgeStyle=orthogonalEdgeStyle;rounded=0;orthogonalLoop=1;jettySize=auto;html=1;entryX=0.5;entryY=0;entryDx=0;entryDy=0;" edge="1" parent="WIyWlLk6GJQsqaUBKTNV-1" source="_7yS_HUw5QS6FRWzfjh0-11" target="_7yS_HUw5QS6FRWzfjh0-12">
          <mxGeometry relative="1" as="geometry" />
        </mxCell>
        <mxCell id="I3R7oS-LW92CMUSNMcSe-34" style="edgeStyle=orthogonalEdgeStyle;rounded=0;orthogonalLoop=1;jettySize=auto;html=1;entryX=1;entryY=0.5;entryDx=0;entryDy=0;" edge="1" parent="WIyWlLk6GJQsqaUBKTNV-1" source="_7yS_HUw5QS6FRWzfjh0-11" target="_7yS_HUw5QS6FRWzfjh0-15">
          <mxGeometry relative="1" as="geometry">
            <Array as="points">
              <mxPoint x="640" y="695" />
              <mxPoint x="640" y="1050" />
            </Array>
          </mxGeometry>
        </mxCell>
        <mxCell id="_7yS_HUw5QS6FRWzfjh0-11" value="index &amp;lt;= maxIndex" style="rhombus;whiteSpace=wrap;html=1;" parent="WIyWlLk6GJQsqaUBKTNV-1" vertex="1">
          <mxGeometry x="352" y="650" width="124" height="90" as="geometry" />
        </mxCell>
        <mxCell id="I3R7oS-LW92CMUSNMcSe-21" style="edgeStyle=orthogonalEdgeStyle;rounded=0;orthogonalLoop=1;jettySize=auto;html=1;entryX=0.5;entryY=0;entryDx=0;entryDy=0;" edge="1" parent="WIyWlLk6GJQsqaUBKTNV-1" source="_7yS_HUw5QS6FRWzfjh0-12" target="_7yS_HUw5QS6FRWzfjh0-14">
          <mxGeometry relative="1" as="geometry" />
        </mxCell>
        <mxCell id="I3R7oS-LW92CMUSNMcSe-25" style="edgeStyle=orthogonalEdgeStyle;rounded=0;orthogonalLoop=1;jettySize=auto;html=1;entryX=1;entryY=0.5;entryDx=0;entryDy=0;" edge="1" parent="WIyWlLk6GJQsqaUBKTNV-1" source="_7yS_HUw5QS6FRWzfjh0-12" target="I3R7oS-LW92CMUSNMcSe-20">
          <mxGeometry relative="1" as="geometry" />
        </mxCell>
        <mxCell id="_7yS_HUw5QS6FRWzfjh0-12" value="array[index].length &amp;lt;= 3" style="rhombus;whiteSpace=wrap;html=1;" parent="WIyWlLk6GJQsqaUBKTNV-1" vertex="1">
          <mxGeometry x="342" y="770" width="144" height="130" as="geometry" />
        </mxCell>
        <mxCell id="I3R7oS-LW92CMUSNMcSe-26" style="edgeStyle=orthogonalEdgeStyle;rounded=0;orthogonalLoop=1;jettySize=auto;html=1;entryX=0.5;entryY=1;entryDx=0;entryDy=0;" edge="1" parent="WIyWlLk6GJQsqaUBKTNV-1" source="_7yS_HUw5QS6FRWzfjh0-14" target="I3R7oS-LW92CMUSNMcSe-20">
          <mxGeometry relative="1" as="geometry" />
        </mxCell>
        <mxCell id="_7yS_HUw5QS6FRWzfjh0-14" value="resArray[resArrayIndex] = array[index]&lt;br&gt;resArrayIndex = resArrayIndex + 1" style="rounded=0;whiteSpace=wrap;html=1;" parent="WIyWlLk6GJQsqaUBKTNV-1" vertex="1">
          <mxGeometry x="303" y="940" width="222" height="50" as="geometry" />
        </mxCell>
        <mxCell id="I3R7oS-LW92CMUSNMcSe-24" style="edgeStyle=orthogonalEdgeStyle;rounded=0;orthogonalLoop=1;jettySize=auto;html=1;entryX=0.5;entryY=0;entryDx=0;entryDy=0;" edge="1" parent="WIyWlLk6GJQsqaUBKTNV-1" source="_7yS_HUw5QS6FRWzfjh0-15" target="_7yS_HUw5QS6FRWzfjh0-4">
          <mxGeometry relative="1" as="geometry" />
        </mxCell>
        <mxCell id="_7yS_HUw5QS6FRWzfjh0-15" value="print(resArray)" style="rounded=0;whiteSpace=wrap;html=1;" parent="WIyWlLk6GJQsqaUBKTNV-1" vertex="1">
          <mxGeometry x="354" y="1020" width="120" height="60" as="geometry" />
        </mxCell>
        <mxCell id="I3R7oS-LW92CMUSNMcSe-10" value="NO" style="text;html=1;align=center;verticalAlign=middle;resizable=0;points=[];autosize=1;strokeColor=none;fillColor=none;" vertex="1" parent="WIyWlLk6GJQsqaUBKTNV-1">
          <mxGeometry x="302" y="330" width="40" height="30" as="geometry" />
        </mxCell>
        <mxCell id="I3R7oS-LW92CMUSNMcSe-11" value="YES" style="text;html=1;align=center;verticalAlign=middle;resizable=0;points=[];autosize=1;strokeColor=none;fillColor=none;" vertex="1" parent="WIyWlLk6GJQsqaUBKTNV-1">
          <mxGeometry x="364" y="260" width="50" height="30" as="geometry" />
        </mxCell>
        <mxCell id="I3R7oS-LW92CMUSNMcSe-12" value="YES" style="text;html=1;align=center;verticalAlign=middle;resizable=0;points=[];autosize=1;strokeColor=none;fillColor=none;" vertex="1" parent="WIyWlLk6GJQsqaUBKTNV-1">
          <mxGeometry x="364" y="410" width="50" height="30" as="geometry" />
        </mxCell>
        <mxCell id="I3R7oS-LW92CMUSNMcSe-13" value="NO" style="text;html=1;align=center;verticalAlign=middle;resizable=0;points=[];autosize=1;strokeColor=none;fillColor=none;" vertex="1" parent="WIyWlLk6GJQsqaUBKTNV-1">
          <mxGeometry x="486" y="190" width="40" height="30" as="geometry" />
        </mxCell>
        <mxCell id="I3R7oS-LW92CMUSNMcSe-18" style="edgeStyle=orthogonalEdgeStyle;rounded=0;orthogonalLoop=1;jettySize=auto;html=1;exitX=0.5;exitY=1;exitDx=0;exitDy=0;" edge="1" parent="WIyWlLk6GJQsqaUBKTNV-1" source="_7yS_HUw5QS6FRWzfjh0-9" target="_7yS_HUw5QS6FRWzfjh0-9">
          <mxGeometry relative="1" as="geometry" />
        </mxCell>
        <mxCell id="I3R7oS-LW92CMUSNMcSe-27" style="edgeStyle=orthogonalEdgeStyle;rounded=0;orthogonalLoop=1;jettySize=auto;html=1;entryX=0;entryY=0.5;entryDx=0;entryDy=0;" edge="1" parent="WIyWlLk6GJQsqaUBKTNV-1" source="I3R7oS-LW92CMUSNMcSe-20" target="_7yS_HUw5QS6FRWzfjh0-11">
          <mxGeometry relative="1" as="geometry">
            <Array as="points">
              <mxPoint x="220" y="695" />
            </Array>
          </mxGeometry>
        </mxCell>
        <mxCell id="I3R7oS-LW92CMUSNMcSe-20" value="index = index + 1" style="rounded=0;whiteSpace=wrap;html=1;" vertex="1" parent="WIyWlLk6GJQsqaUBKTNV-1">
          <mxGeometry x="160" y="820" width="120" height="30" as="geometry" />
        </mxCell>
        <mxCell id="I3R7oS-LW92CMUSNMcSe-29" value="NO" style="text;html=1;align=center;verticalAlign=middle;resizable=0;points=[];autosize=1;strokeColor=none;fillColor=none;" vertex="1" parent="WIyWlLk6GJQsqaUBKTNV-1">
          <mxGeometry x="470" y="660" width="40" height="30" as="geometry" />
        </mxCell>
        <mxCell id="I3R7oS-LW92CMUSNMcSe-30" value="NO" style="text;html=1;align=center;verticalAlign=middle;resizable=0;points=[];autosize=1;strokeColor=none;fillColor=none;" vertex="1" parent="WIyWlLk6GJQsqaUBKTNV-1">
          <mxGeometry x="303" y="800" width="40" height="30" as="geometry" />
        </mxCell>
        <mxCell id="I3R7oS-LW92CMUSNMcSe-31" value="YES" style="text;html=1;align=center;verticalAlign=middle;resizable=0;points=[];autosize=1;strokeColor=none;fillColor=none;" vertex="1" parent="WIyWlLk6GJQsqaUBKTNV-1">
          <mxGeometry x="364" y="740" width="50" height="30" as="geometry" />
        </mxCell>
        <mxCell id="I3R7oS-LW92CMUSNMcSe-32" value="YES" style="text;html=1;align=center;verticalAlign=middle;resizable=0;points=[];autosize=1;strokeColor=none;fillColor=none;" vertex="1" parent="WIyWlLk6GJQsqaUBKTNV-1">
          <mxGeometry x="364" y="900" width="50" height="30" as="geometry" />
        </mxCell>
      </root>
    </mxGraphModel>
  </diagram>
</mxfile>
